# xmcd CD database file
#
# Track frame offsets:
#	150
#	18920
#	44452
#	79795
#	105735
#	135770
#
# Disc length: 2395 seconds
#
# Revision: 0
# Processed by: cddbd v1.5.1PL0 Copyright (c) Steve Scherf et al.
# Submitted via: CDex 1.51
#
DISCID=3d095906
DTITLE=Freddie Hubbard - Backlash
DYEAR=1900
DGENRE=Jazz
TTITLE0=Backlash
TTITLE1=The Return Of The Prodigal Son
TTITLE2=Little Sunflower
TTITLE3=On The Que-Tee
TTITLE4=Up jumped Spring
TTITLE5=Echoes Of Blue
EXTD=
EXTT0=
EXTT1=
EXTT2=
EXTT3=
EXTT4=
EXTT5=
PLAYORDER=
